<?xml version="1.0" standalone="no"?>
<!DOCTYPE svg PUBLIC "-//W3C//DTD SVG 20010904//EN"
 "http://www.w3.org/TR/2001/REC-SVG-20010904/DTD/svg10.dtd">
<svg version="1.0" xmlns="http://www.w3.org/2000/svg"
 width="409.000000pt" height="409.000000pt" viewBox="0 0 409.000000 409.000000"
 preserveAspectRatio="xMidYMid meet">
<metadata>
Created by potrace 1.14, written by Peter Selinger 2001-2017
</metadata>
<g transform="translate(0.000000,409.000000) scale(0.100000,-0.100000)"
fill="#000000" stroke="none">
<path d="M1650 3913 c-436 -60 -845 -279 -1141 -609 -91 -102 -106 -120 -147
-181 -112 -166 -183 -306 -233 -458 -18 -55 -34 -102 -34 -105 -1 -3 -11 -45
-23 -95 -21 -90 -26 -116 -39 -230 -11 -91 -7 -350 6 -435 7 -41 14 -91 17
-110 28 -186 135 -457 257 -652 153 -244 399 -482 637 -620 316 -182 610 -263
955 -263 178 0 257 9 450 52 255 57 520 189 744 370 46 37 89 72 96 77 8 6 82
-61 238 -218 251 -251 276 -269 382 -269 78 -1 140 28 194 89 23 26 46 65 52
88 15 53 6 152 -16 196 -10 19 -129 147 -266 284 l-249 250 21 30 c38 58 112
220 145 318 78 230 104 398 99 658 -2 102 -5 195 -8 207 -3 11 -9 43 -12 70
-12 88 -63 270 -102 368 -55 138 -205 408 -256 459 -6 7 -28 32 -47 57 -180
225 -467 440 -720 539 -30 11 -64 25 -75 30 -81 35 -285 86 -416 104 -129 17
-383 17 -509 -1z"/>
</g>
</svg>
